# xmcd
#
# Track frame offsets:
#	150
#	18585
#	27650
#	44880
#	55805
#	73590
#	87425
#	98493
#	107328
#	118543
#	128655
#	137768
#
# Disc length: 1983 seconds
#
# Revision: 1
# Processed by: cddbd v1.5.1PL0 Copyright (c) Steve Scherf et al.
# Submitted via: CDex 1.50Beta5
#
DISCID=a307bd0c
DTITLE=慶應義塾大学ワグネル・ソサエティー - 東京六大学の歌
DYEAR=1999
DGENRE=
TTITLE0=慶應義塾大学ワグネル・ソサエティー/慶應義塾大学塾歌
TTITLE1=慶應義塾大学ワグネル・ソサエティー/若き血
TTITLE2=早稲田大学グリー・クラブ/早稲田大学校歌
TTITLE3=早稲田大学グリー・クラブ/早稲田大学応援歌
TTITLE4=明治大学グリー・クラブ/明治大学校歌
TTITLE5=明治大学グリー・クラブ/紫紺の歌
TTITLE6=立教大学グリー・クラブ/立教大学校歌
TTITLE7=立教大学グリー・クラブ/立教大学応援歌
TTITLE8=法政大学アリオン・コール/法政大学校歌
TTITLE9=法政大学アリオン・コール/若き日の誇り
TTITLE10=東京大学コール・アカデミー/ただ一つ
TTITLE11=東京大学コール・アカデミー/足音を高めよ
EXTD=
EXTT0=
EXTT1=
EXTT2=
EXTT3=
EXTT4=
EXTT5=
EXTT6=
EXTT7=
EXTT8=
EXTT9=
EXTT10=
EXTT11=
PLAYORDER=
